<mxfile host="app.diagrams.net" modified="2020-10-08T12:53:19.803Z" agent="5.0 (Windows NT 10.0; Win64; x64) AppleWebKit/537.36 (KHTML, like Gecko) Chrome/85.0.4183.121 Safari/537.36" etag="HtUbHLo5pafsmfRbQrOr" version="13.7.8" type="github">
  <diagram id="eOPjEWD32s1lzQSsgyG2" name="Page-1">
    <mxGraphModel dx="1848" dy="567" grid="1" gridSize="10" guides="1" tooltips="1" connect="1" arrows="1" fold="1" page="1" pageScale="1" pageWidth="827" pageHeight="1169" math="0" shadow="0">
      <root>
        <mxCell id="0" />
        <mxCell id="1" parent="0" />
        <mxCell id="wOVUiWS3lYH8ZjCCKTtn-1" value="" style="rounded=0;whiteSpace=wrap;html=1;" parent="1" vertex="1">
          <mxGeometry x="-820" y="10" width="1640" height="100" as="geometry" />
        </mxCell>
        <mxCell id="wOVUiWS3lYH8ZjCCKTtn-2" value="" style="rounded=1;whiteSpace=wrap;html=1;strokeWidth=2;fillWeight=4;hachureGap=8;hachureAngle=45;fillColor=#1ba1e2;sketch=1;" parent="1" vertex="1">
          <mxGeometry x="-140" y="30" width="250" height="70" as="geometry" />
        </mxCell>
        <mxCell id="wOVUiWS3lYH8ZjCCKTtn-3" value="&lt;font style=&quot;font-size: 48px ; font-weight: normal&quot;&gt;link&lt;/font&gt;" style="text;strokeColor=none;fillColor=none;html=1;fontSize=24;fontStyle=1;verticalAlign=middle;align=center;" parent="1" vertex="1">
          <mxGeometry x="-350" y="10" width="210" height="100" as="geometry" />
        </mxCell>
        <mxCell id="wOVUiWS3lYH8ZjCCKTtn-4" value="&lt;font style=&quot;font-size: 48px ; font-weight: normal&quot;&gt;link&lt;/font&gt;" style="text;strokeColor=none;fillColor=none;html=1;fontSize=24;fontStyle=1;verticalAlign=middle;align=center;" parent="1" vertex="1">
          <mxGeometry x="-500" y="10" width="210" height="100" as="geometry" />
        </mxCell>
        <mxCell id="wOVUiWS3lYH8ZjCCKTtn-5" value="&lt;font style=&quot;font-size: 48px ; font-weight: normal&quot;&gt;link&lt;/font&gt;" style="text;strokeColor=none;fillColor=none;html=1;fontSize=24;fontStyle=1;verticalAlign=middle;align=center;" parent="1" vertex="1">
          <mxGeometry x="-650" y="10" width="210" height="100" as="geometry" />
        </mxCell>
        <mxCell id="wOVUiWS3lYH8ZjCCKTtn-6" value="&lt;font style=&quot;font-size: 48px ; font-weight: normal&quot;&gt;link&lt;/font&gt;" style="text;strokeColor=none;fillColor=none;html=1;fontSize=24;fontStyle=1;verticalAlign=middle;align=center;" parent="1" vertex="1">
          <mxGeometry x="120" y="10" width="210" height="100" as="geometry" />
        </mxCell>
        <mxCell id="wOVUiWS3lYH8ZjCCKTtn-7" value="&lt;font style=&quot;font-size: 48px ; font-weight: normal&quot;&gt;link&lt;/font&gt;" style="text;strokeColor=none;fillColor=none;html=1;fontSize=24;fontStyle=1;verticalAlign=middle;align=center;" parent="1" vertex="1">
          <mxGeometry x="270" y="10" width="210" height="100" as="geometry" />
        </mxCell>
        <mxCell id="wOVUiWS3lYH8ZjCCKTtn-8" value="&lt;font style=&quot;font-size: 48px ; font-weight: normal&quot;&gt;link&lt;/font&gt;" style="text;strokeColor=none;fillColor=none;html=1;fontSize=24;fontStyle=1;verticalAlign=middle;align=center;" parent="1" vertex="1">
          <mxGeometry x="420" y="10" width="210" height="100" as="geometry" />
        </mxCell>
        <mxCell id="wOVUiWS3lYH8ZjCCKTtn-9" value="&lt;font style=&quot;font-size: 48px&quot;&gt;logo&lt;/font&gt;" style="text;strokeColor=none;fillColor=none;html=1;fontSize=24;fontStyle=1;verticalAlign=middle;align=center;" parent="1" vertex="1">
          <mxGeometry x="-135" y="30" width="240" height="70" as="geometry" />
        </mxCell>
        <mxCell id="wOVUiWS3lYH8ZjCCKTtn-10" value="" style="rounded=0;whiteSpace=wrap;html=1;fillColor=#99FFCC;" parent="1" vertex="1">
          <mxGeometry x="-820" y="110" width="1640" height="610" as="geometry" />
        </mxCell>
        <mxCell id="wOVUiWS3lYH8ZjCCKTtn-13" value="&lt;font style=&quot;font-size: 72px&quot;&gt;&lt;b&gt;BIG TITLE&lt;/b&gt;&lt;/font&gt;" style="rounded=1;whiteSpace=wrap;html=1;glass=0;shadow=0;sketch=0;strokeColor=#FFFFFF;" parent="1" vertex="1">
          <mxGeometry x="-335" y="250" width="670" height="110" as="geometry" />
        </mxCell>
        <mxCell id="wOVUiWS3lYH8ZjCCKTtn-14" value="&lt;pre&gt;&lt;font style=&quot;font-size: 48px&quot;&gt;order&lt;/font&gt;&lt;/pre&gt;" style="rounded=1;html=1;shadow=0;dashed=0;whiteSpace=wrap;fontSize=10;fillColor=#666666;align=center;strokeColor=#4D4D4D;fontColor=#ffffff;" parent="1" vertex="1">
          <mxGeometry x="-413" y="460" width="330" height="80" as="geometry" />
        </mxCell>
        <mxCell id="wOVUiWS3lYH8ZjCCKTtn-16" value="&lt;pre&gt;&lt;font style=&quot;font-size: 48px&quot; color=&quot;#1a1a1a&quot;&gt;sign up&lt;/font&gt;&lt;/pre&gt;" style="rounded=1;html=1;shadow=0;dashed=0;whiteSpace=wrap;fontSize=10;fillColor=#E6E6E6;align=center;strokeColor=#4D4D4D;fontColor=#ffffff;" parent="1" vertex="1">
          <mxGeometry x="84" y="460" width="330" height="80" as="geometry" />
        </mxCell>
        <mxCell id="wOVUiWS3lYH8ZjCCKTtn-18" style="edgeStyle=orthogonalEdgeStyle;rounded=0;orthogonalLoop=1;jettySize=auto;html=1;" parent="1" source="wOVUiWS3lYH8ZjCCKTtn-10" target="wOVUiWS3lYH8ZjCCKTtn-10" edge="1">
          <mxGeometry relative="1" as="geometry" />
        </mxCell>
      </root>
    </mxGraphModel>
  </diagram>
</mxfile>
